# xmcd
#
# Track frame offsets:
#        150
#        18095
#        72403
#        93828
#        112675
#        170083
#        214598
#        232068
#        253575
#        285140
#
# Disc length: 4138 seconds
#
# Revision: 1
# Processed by: cddbd v1.5.1PL2 Copyright (c) Steve Scherf et al.
# Submitted via: ExactAudioCopy v0.95a4
#
DISCID=7b10280a
DTITLE=Stevie Ray Vaughan And Double Trouble - Love And Happiness (Live
DTITLE=83,84)
DYEAR=1984
DGENRE=Blues
TTITLE0=Cold Shot
TTITLE1=Voodoo Chile
TTITLE2=Pride And Joy
TTITLE3=Testify
TTITLE4=Little Wing - Third Stone From The Sun
TTITLE5=Texas Flood
TTITLE6=Mary Had A Little Lamb
TTITLE7=Superstition
TTITLE8=The Sky Is Crying
TTITLE9=Stevies Blues
EXTD=
EXTT0=
EXTT1=
EXTT2=
EXTT3=
EXTT4=
EXTT5=
EXTT6=
EXTT7=
EXTT8=
EXTT9=
PLAYORDER=
